# File created by Blade
# Date/Time:  Wed Sep 24 19:10:19 2014
# Frame Rate: 120.000 fps
#------------------------------------------------------
:FULLY-SPECIFIED
:DEGREES
2522
root -9.396309 32.540089 -4.306439 17.797357 26.767430 15.264504
Spine -0.469918 -10.241884 0.502205
Head -8.097430 19.513815 -0.421756
LeftShoulder 2.937665 3.252008 15.496709
LeftArm 43.308138 -11.549763 -76.023921
LeftForeArm 5.116231 -0.000000 58.332443
LeftHand -24.756459 0.000000 31.410269
LeftHandThumb1 -26.253704 0.000000 33.147579
RightShoulder -15.828084 10.807618 -20.726869
RightArm -16.089957 -21.487990 74.785666
RightForeArm -22.981222 0.000000 30.309933
RightHand -4.266499 -0.000000 10.627178
RightHandThumb1 -24.326973 -0.000000 -32.862282
LeftUpLeg -88.463225 44.378109 -7.085221
LeftLeg 109.778385 -0.000000 -0.000000
LeftFoot 33.358239 19.368676 -25.165073
LeftToeBase 7.903819 -0.000000 -0.000000
RightUpLeg -25.609036 -13.496237 -1.269364
RightLeg 30.007818 -0.000000 -0.000000
RightFoot -17.799132 -30.968666 -2.897532
RightToeBase -1.368392 -0.000000 0.000000
2523
root -9.393469 32.548684 -4.277521 17.901167 27.078432 15.423961
Spine -0.620353 -10.614356 0.553028
Head -7.979714 19.587960 -0.612042
LeftShoulder 2.918833 3.237018 15.416657
LeftArm 43.297368 -11.162232 -75.923181
LeftForeArm 5.239310 -0.000000 58.291119
LeftHand -24.609460 0.000000 31.265522
LeftHandThumb1 -26.253704 0.000000 33.147579
RightShoulder -15.930005 10.736220 -20.789258
RightArm -16.250872 -21.424244 74.671825
RightForeArm -22.959732 -0.000000 30.184256
RightHand -4.258837 0.000000 10.779900
RightHandThumb1 -24.326973 -0.000000 -32.862282
LeftUpLeg -87.274384 44.662008 -6.184783
LeftLeg 109.478735 -0.000000 -0.000000
LeftFoot 33.195072 19.542977 -25.306548
LeftToeBase 8.127454 -0.000000 -0.000000
RightUpLeg -25.493455 -13.577494 -1.362156
RightLeg 29.933613 -0.000000 -0.000000
RightFoot -17.859149 -31.162172 -2.745089
RightToeBase -1.353613 -0.000000 0.000000
2524
root -9.392655 32.556123 -4.242577 17.976785 27.332299 15.589412
Spine -0.747201 -10.910172 0.530602
Head -7.822677 19.638164 -0.675862
LeftShoulder 2.877196 3.302222 15.356351
LeftArm 43.348360 -10.774796 -75.731379
LeftForeArm 5.066346 0.000000 58.237480
LeftHand -24.396248 -0.000000 31.299035
LeftHandThumb1 -26.253704 0.000000 33.147579
RightShoulder -16.017296 10.641143 -20.802320
RightArm -16.431570 -21.395054 74.573573
RightForeArm -22.972167 -0.000000 30.075966
RightHand -4.285718 0.000000 10.753027
RightHandThumb1 -24.326973 -0.000000 -32.862282
LeftUpLeg -86.027499 44.993945 -5.283042
LeftLeg 109.150162 -0.000000 -0.000000
LeftFoot 33.224925 19.785807 -25.405710
LeftToeBase 7.464811 -0.000000 -0.000000
RightUpLeg -25.335493 -13.545698 -1.486748
RightLeg 29.855611 -0.000000 -0.000000
RightFoot -17.934284 -31.420440 -2.591695
RightToeBase -1.281905 -0.000000 0.000000
2525
root -9.391415 32.563225 -4.203817 18.012636 27.569888 15.738121
Spine -0.839835 -11.187497 0.512139
Head -7.668395 19.722617 -0.737000
LeftShoulder 2.832555 3.336562 15.260931
LeftArm 43.356979 -10.425562 -75.579326
LeftForeArm 5.139777 -0.000000 58.208749
LeftHand -24.326945 -0.000000 31.220942
LeftHandThumb1 -26.253704 0.000000 33.147579
RightShoulder -16.078541 10.523484 -20.808343
RightArm -16.590060 -21.361979 74.484428
RightForeArm -22.977858 -0.000000 29.964265
RightHand -4.273541 -0.000000 10.657523
RightHandThumb1 -24.326973 -0.000000 -32.862282
LeftUpLeg -84.718398 45.345230 -4.367206
LeftLeg 108.823216 -0.000000 -0.000000
LeftFoot 33.152400 19.960236 -25.428665
LeftToeBase 7.316580 -0.000000 -0.000000
RightUpLeg -25.141572 -13.613602 -1.582197
RightLeg 29.763434 -0.000000 -0.000000
RightFoot -18.010262 -31.576957 -2.498897
RightToeBase -1.198764 -0.000000 0.000000
